<svg xmlns="http://www.w3.org/2000/svg" xmlns:xlink="http://www.w3.org/1999/xlink" width="1200" height="900" viewBox="0 0 1200 900" role="img" aria-labelledby="title desc">
  <title id="title">Carte de l'itineraire Sicile 2026 sur fond Wikimedia Commons</title>
  <desc id="desc">Carte de l'itineraire en Sicile avec fond de carte Wikimedia Commons, trajet, lieux visites et lieux de nuit.</desc>
  <defs>
    <filter id="shadow" x="-20%" y="-20%" width="140%" height="140%">
      <feDropShadow dx="0" dy="8" stdDeviation="10" flood-color="#1d3850" flood-opacity="0.16"/>
    </filter>
    <style>
      .title { font: 700 34px 'Segoe UI', Arial, sans-serif; fill: #17324c; }
      .subtitle { font: 400 18px 'Segoe UI', Arial, sans-serif; fill: #4c6880; }
      .label { font: 600 18px 'Segoe UI', Arial, sans-serif; fill: #163047; }
      .small { font: 400 14px 'Segoe UI', Arial, sans-serif; fill: #4c6880; }
      .legend { font: 600 16px 'Segoe UI', Arial, sans-serif; fill: #163047; }
      .panel { fill: rgba(255,255,255,0.92); stroke: #d1dde6; stroke-width: 1.5; }
      .route-back { fill: none; stroke: #f7ddcf; stroke-width: 13; stroke-linecap: round; stroke-linejoin: round; }
      .route { fill: none; stroke: #c65c35; stroke-width: 5.5; stroke-linecap: round; stroke-linejoin: round; }
      .overnight { fill: #c65c35; stroke: #fff7f0; stroke-width: 4; }
      .visit { fill: #2f7f97; stroke: #eef9fc; stroke-width: 4; }
      .airport { fill: #6b4f93; stroke: #f5f0ff; stroke-width: 4; }
      .num { font: 700 13px 'Segoe UI', Arial, sans-serif; fill: white; text-anchor: middle; dominant-baseline: central; }
      .callout-line { stroke: #87a3b6; stroke-width: 2; stroke-dasharray: 5 5; }
      .credit { font: 400 12px 'Segoe UI', Arial, sans-serif; fill: #5d7488; }
    </style>
  </defs>

  <rect width="1200" height="900" fill="#eef6fb"/>

  <g filter="url(#shadow)">
    <image x="95" y="128" width="1010" height="625" href="sicily-wikimedia-base.svg" xlink:href="sicily-wikimedia-base.svg" preserveAspectRatio="xMidYMid meet"/>
  </g>

  <g transform="translate(62 48)">
    <rect class="panel" x="0" y="0" width="660" height="78" rx="18"/>
    <text class="title" x="24" y="34">Road trip Sicile 2026</text>
    <text class="subtitle" x="24" y="60">Itineraire sur fond de carte Wikimedia Commons</text>
  </g>

  <g>
    <path class="route-back" d="M361 245 L513 269 L805 330 L736 378 L805 330 L759 439 L805 580 L755 637 L805 580 L683 647 L676 624 L412 503 L386 509 L170 276 L237 263 L299 226"/>
    <path class="route" d="M361 245 L513 269 L805 330 L736 378 L805 330 L759 439 L805 580 L755 637 L805 580 L683 647 L676 624 L412 503 L386 509 L170 276 L237 263 L299 226"/>
  </g>

  <g>
    <line class="callout-line" x1="299" y1="226" x2="246" y2="189"/>
    <text class="small" x="176" y="186">Aeroport PMO</text>

    <circle class="overnight" cx="361" cy="245" r="13"/>
    <text class="num" x="361" y="245">1</text>
    <text class="label" x="378" y="236">Palerme</text>
    <text class="small" x="378" y="256">nuits 1-2 et 12</text>

    <circle class="airport" cx="299" cy="226" r="11"/>
    <text class="label" x="188" y="212">Palerme aeroport</text>
    <text class="small" x="188" y="230">retour</text>

    <circle class="overnight" cx="513" cy="269" r="13"/>
    <text class="num" x="513" y="269">2</text>
    <text class="label" x="530" y="260">Cefalu</text>
    <text class="small" x="530" y="280">nuit 3</text>

    <circle class="overnight" cx="805" cy="330" r="13"/>
    <text class="num" x="805" y="330">3</text>
    <text class="label" x="822" y="320">Taormine</text>
    <text class="small" x="822" y="340">nuits 4-6</text>

    <circle class="visit" cx="736" cy="378" r="11"/>
    <text class="label" x="753" y="372">Etna</text>
    <text class="small" x="753" y="390">excursion</text>

    <circle class="visit" cx="759" cy="439" r="11"/>
    <text class="label" x="776" y="433">Catane</text>
    <text class="small" x="776" y="451">visite</text>

    <circle class="overnight" cx="805" cy="580" r="13"/>
    <text class="num" x="805" y="580">4</text>
    <text class="label" x="822" y="570">Syracuse</text>
    <text class="small" x="822" y="590">nuits 7-8</text>

    <circle class="visit" cx="755" cy="637" r="11"/>
    <text class="label" x="772" y="631">Noto</text>
    <text class="small" x="772" y="649">excursion</text>

    <circle class="visit" cx="683" cy="647" r="11"/>
    <text class="label" x="596" y="641">Modica</text>
    <text class="small" x="596" y="659">visite</text>

    <circle class="overnight" cx="676" cy="624" r="13"/>
    <text class="num" x="676" y="624">5</text>
    <text class="label" x="693" y="614">Ragusa</text>
    <text class="small" x="693" y="632">nuit 9</text>

    <circle class="overnight" cx="412" cy="503" r="13"/>
    <text class="num" x="412" y="503">6</text>
    <text class="label" x="429" y="493">Agrigente</text>
    <text class="small" x="429" y="511">nuit 10</text>

    <circle class="visit" cx="386" cy="509" r="11"/>
    <text class="label" x="250" y="500">Scala dei Turchi</text>
    <text class="small" x="250" y="518">visite</text>

    <circle class="overnight" cx="170" cy="276" r="13"/>
    <text class="num" x="170" y="276">7</text>
    <text class="label" x="93" y="270">Trapani</text>
    <text class="small" x="93" y="288">nuit 11</text>

    <circle class="visit" cx="237" cy="263" r="11"/>
    <text class="label" x="118" y="250">Zingaro / Scopello</text>
    <text class="small" x="118" y="268">randonnee</text>
  </g>

  <g transform="translate(832 78)">
    <rect class="panel" x="0" y="0" width="305" height="236" rx="16"/>
    <text class="legend" x="22" y="34">Legende</text>
    <circle class="overnight" cx="25" cy="69" r="11"/>
    <text class="small" x="48" y="74">Ville ou vous dormez</text>
    <circle class="visit" cx="25" cy="102" r="11"/>
    <text class="small" x="48" y="107">Ville ou site visite sans nuit</text>
    <circle class="airport" cx="25" cy="135" r="11"/>
    <text class="small" x="48" y="140">Aeroport</text>
    <line x1="12" y1="169" x2="40" y2="169" class="route"/>
    <text class="small" x="48" y="174">Trajet principal du road trip</text>
    <text class="small" x="22" y="203">Fond de carte : Wikimedia Commons</text>
    <text class="small" x="22" y="221">Eric Gaba (Sting), CC BY-SA 3.0</text>
  </g>

  <g transform="translate(62 812)">
    <rect class="panel" x="0" y="0" width="1076" height="44" rx="14"/>
    <text class="credit" x="20" y="28">Fond de carte local : sicily-wikimedia-base.svg, source Wikimedia Commons, Eric Gaba (Sting), licence CC BY-SA 3.0.</text>
  </g>
</svg>
